<?xml version="1.0" encoding="UTF-8" standalone="no"?>
<!-- Created with Inkscape (http://www.inkscape.org/) -->

<svg
   xmlns:dc="http://purl.org/dc/elements/1.1/"
   xmlns:cc="http://creativecommons.org/ns#"
   xmlns:rdf="http://www.w3.org/1999/02/22-rdf-syntax-ns#"
   xmlns:svg="http://www.w3.org/2000/svg"
   xmlns="http://www.w3.org/2000/svg"
   xmlns:sodipodi="http://sodipodi.sourceforge.net/DTD/sodipodi-0.dtd"
   xmlns:inkscape="http://www.inkscape.org/namespaces/inkscape"
   version="1.1"
   id="svg2"
   width="1048.0947"
   height="936.89288"
   viewBox="0 0 1048.0947 936.89288"
   sodipodi:docname="OpenDoor.svg"
   inkscape:version="0.92.3 (2405546, 2018-03-11)">
  <metadata
     id="metadata8">
    <rdf:RDF>
      <cc:Work
         rdf:about="">
        <dc:format>image/svg+xml</dc:format>
        <dc:type
           rdf:resource="http://purl.org/dc/dcmitype/StillImage" />
        <dc:title></dc:title>
      </cc:Work>
    </rdf:RDF>
  </metadata>
  <defs
     id="defs6" />
  <sodipodi:namedview
     pagecolor="#ffffff"
     bordercolor="#666666"
     borderopacity="1"
     objecttolerance="10"
     gridtolerance="10"
     guidetolerance="10"
     inkscape:pageopacity="0"
     inkscape:pageshadow="2"
     inkscape:window-width="1920"
     inkscape:window-height="1005"
     id="namedview4"
     showgrid="false"
     inkscape:zoom="0.50212766"
     inkscape:cx="902.85477"
     inkscape:cy="242.52158"
     inkscape:window-x="-9"
     inkscape:window-y="-9"
     inkscape:window-maximized="1"
     inkscape:current-layer="svg2"
     inkscape:snap-bbox="true"
     inkscape:bbox-paths="true"
     inkscape:bbox-nodes="true"
     inkscape:snap-bbox-edge-midpoints="true"
     inkscape:snap-bbox-midpoints="true"
     inkscape:object-paths="true"
     inkscape:snap-intersection-paths="true"
     inkscape:snap-smooth-nodes="true"
     inkscape:snap-object-midpoints="true"
     inkscape:snap-center="true"
     showguides="true"
     inkscape:guide-bbox="true"
     inkscape:snap-global="false"
     inkscape:lockguides="true"
     fit-margin-top="0"
     fit-margin-left="0"
     fit-margin-right="0"
     fit-margin-bottom="0" />
  <path
     id="path1084"
     d="m 702.54883,52.028477 c 0.35636,61.199813 63.81874,121.578893 121.17383,121.414063 v 56.30273 c -85.2138,0.6138 -178.1748,-87.22296 -177.30079,-177.716793 z"
     style="opacity:1;fill:#6e6f73;fill-opacity:1;stroke:none;stroke-width:144.85250854;stroke-linecap:square;stroke-linejoin:round;stroke-miterlimit:4;stroke-dasharray:none;stroke-dashoffset:0;stroke-opacity:1"
     inkscape:connector-curvature="0" />
  <path
     inkscape:connector-curvature="0"
     style="opacity:1;fill:#84459a;fill-opacity:1;stroke:none;stroke-width:144.85250854;stroke-linecap:square;stroke-linejoin:round;stroke-miterlimit:4;stroke-dasharray:none;stroke-dashoffset:0;stroke-opacity:1"
     d="M 646.42187,52.028673 C 646.06551,113.22849 582.60313,173.60757 525.24804,173.44274 v 56.30273 c 85.2138,0.6138 178.1748,-87.22296 177.30079,-177.716797 z"
     id="path1086" />
  <path
     id="path1088"
     d="m 702.54883,52.028477 c 0.29944,31.004199 -10.41807,61.694903 -28.0625,88.624993 -17.64478,-26.9303 -28.3639,-57.620456 -28.06446,-88.624993 z"
     style="opacity:1;fill:#40395e;fill-opacity:1;stroke:none;stroke-width:144.85250854;stroke-linecap:square;stroke-linejoin:round;stroke-miterlimit:4;stroke-dasharray:none;stroke-dashoffset:0;stroke-opacity:1"
     inkscape:connector-curvature="0" />
  <path
     id="path1090"
     d="M 646.42187,351.15954 C 646.06551,289.95972 582.60313,229.58064 525.24804,229.74547 v -56.30273 c 85.2138,-0.6138 178.1748,87.22296 177.30079,177.7168 z"
     style="opacity:1;fill:#1ea48b;fill-opacity:1;stroke:none;stroke-width:144.85250854;stroke-linecap:square;stroke-linejoin:round;stroke-miterlimit:4;stroke-dasharray:none;stroke-dashoffset:0;stroke-opacity:1"
     inkscape:connector-curvature="0" />
  <path
     inkscape:connector-curvature="0"
     style="opacity:1;fill:#84459a;fill-opacity:1;stroke:none;stroke-width:144.85250854;stroke-linecap:square;stroke-linejoin:round;stroke-miterlimit:4;stroke-dasharray:none;stroke-dashoffset:0;stroke-opacity:1"
     d="m 702.54883,351.15954 c 0.35636,-61.19982 63.81874,-121.5789 121.17383,-121.41407 v -56.30273 c -85.2138,-0.6138 -178.1748,87.22296 -177.30079,177.7168 z"
     id="path1092" />
  <path
     inkscape:connector-curvature="0"
     style="opacity:1;fill:#40395e;fill-opacity:1;stroke:none;stroke-width:144.85250854;stroke-linecap:square;stroke-linejoin:round;stroke-miterlimit:4;stroke-dasharray:none;stroke-dashoffset:0;stroke-opacity:1"
     d="m 702.54883,351.15954 c 0.29944,-31.0042 -10.41807,-61.69491 -28.0625,-88.625 -17.64478,26.9303 -28.3639,57.62046 -28.06446,88.625 z"
     id="path1094" />
  <path
     id="path1096"
     d="m 823.72266,173.44274 c -30.80461,-0.29944 -61.29774,10.41807 -88.05446,28.0625 26.75693,17.64478 57.24952,28.3639 88.05446,28.06446 z"
     style="opacity:1;fill:#40395e;fill-opacity:1;stroke:none;stroke-width:144.38549805;stroke-linecap:square;stroke-linejoin:round;stroke-miterlimit:4;stroke-dasharray:none;stroke-dashoffset:0;stroke-opacity:1"
     inkscape:connector-curvature="0" />
  <path
     inkscape:connector-curvature="0"
     style="opacity:1;fill:#40395e;fill-opacity:1;stroke:none;stroke-width:144.16481018;stroke-linecap:square;stroke-linejoin:round;stroke-miterlimit:4;stroke-dasharray:none;stroke-dashoffset:0;stroke-opacity:1"
     d="m 525.24804,173.44566 c 30.71051,-0.29944 61.1105,10.41807 87.7855,28.0625 -26.67521,17.64478 -57.07465,28.3639 -87.7855,28.06446 z"
     id="path1098" />
  <circle
     style="opacity:1;fill:#40395e;fill-opacity:1;stroke:none;stroke-width:96.49053955;stroke-linecap:square;stroke-linejoin:round;stroke-miterlimit:4;stroke-dasharray:none;stroke-dashoffset:0;stroke-opacity:1"
     id="path964"
     cx="515.21838"
     cy="41.315193"
     r="41.315121" />
  <circle
     r="41.315121"
     cy="41.315193"
     cx="515.21838"
     id="circle966"
     style="opacity:1;fill:#40395e;fill-opacity:1;stroke:none;stroke-width:96.49053955;stroke-linecap:square;stroke-linejoin:round;stroke-miterlimit:4;stroke-dasharray:none;stroke-dashoffset:0;stroke-opacity:1" />
  <circle
     style="opacity:1;fill:#6e6f73;fill-opacity:1;stroke:none;stroke-width:96.49053955;stroke-linecap:square;stroke-linejoin:round;stroke-miterlimit:4;stroke-dasharray:none;stroke-dashoffset:0;stroke-opacity:1"
     id="circle970"
     cx="515.21838"
     cy="-681.11084"
     r="41.315121"
     inkscape:transform-center-x="2.1289015e-006"
     inkscape:transform-center-y="319.89782"
     transform="scale(1,-1)" />
  <circle
     transform="scale(-1)"
     r="41.315121"
     cy="-41.315121"
     cx="-515.21838"
     id="circle1034"
     style="opacity:1;fill:#6e6f73;fill-opacity:1;stroke:none;stroke-width:96.49053955;stroke-linecap:square;stroke-linejoin:round;stroke-miterlimit:4;stroke-dasharray:none;stroke-dashoffset:0;stroke-opacity:1" />
  <circle
     style="opacity:1;fill:#6e6f73;fill-opacity:1;stroke:none;stroke-width:96.49053955;stroke-linecap:square;stroke-linejoin:round;stroke-miterlimit:4;stroke-dasharray:none;stroke-dashoffset:0;stroke-opacity:1"
     id="circle974"
     cx="196.3063"
     cy="-361.21298"
     r="41.315121"
     transform="scale(1,-1)"
     inkscape:transform-center-x="318.91205"
     inkscape:transform-center-y="-6.9726666e-006" />
  <circle
     inkscape:transform-center-y="-6.9726666e-006"
     inkscape:transform-center-x="-318.91205"
     transform="scale(-1)"
     r="41.315121"
     cy="-361.21298"
     cx="-834.13043"
     id="circle1038"
     style="opacity:1;fill:#6e6f73;fill-opacity:1;stroke:none;stroke-width:96.49053955;stroke-linecap:square;stroke-linejoin:round;stroke-miterlimit:4;stroke-dasharray:none;stroke-dashoffset:0;stroke-opacity:1" />
  <path
     inkscape:connector-curvature="0"
     id="path872"
     style="font-style:normal;font-variant:normal;font-weight:bold;font-stretch:normal;font-size:medium;line-height:1000%;font-family:NoylandAAA-Bold;-inkscape-font-specification:'NoylandAAA-Bold Bold';letter-spacing:0px;word-spacing:0px;opacity:1;fill:#595b5d;fill-opacity:1;stroke:none;stroke-width:40.51424026px;stroke-linecap:butt;stroke-linejoin:miter;stroke-opacity:1"
     d="m 1026.1667,836.83996 v 80.82588 c 0,3.54365 -1.4027,6.71821 -4.2082,9.52368 -2.8055,2.65773 -6.6846,4.48448 -10.3757,4.48448 -3.8391,0 -9.0137,-1.25459 -11.5236,-3.76377 -2.50919,-2.65773 -3.76378,-5.90603 -3.76378,-9.74489 v -81.71193 c -18.02425,-1.06613 -33.02565,-2.73509 -47.07682,-4.8158 -4.13435,-0.44296 -7.38278,-1.99331 -9.7453,-4.65104 -2.21478,-2.80547 -3.17497,-5.98003 -2.88056,-9.52368 0.2944,-3.69112 1.84474,-6.86555 4.65103,-9.52328 2.95295,-2.65773 6.42272,-3.69085 10.40933,-3.09934 28.20139,3.69139 64.338,5.78602 85.0095,5.78602 3.8389,-0.13505 6.9395,1.34143 9.302,4.42943 2.3633,3.10069 2.2763,7.44188 1.9792,11.28101 -0.1351,3.54365 -1.4639,6.34899 -3.9866,8.41603 -2.5092,2.06623 -5.6099,3.02641 -9.3021,2.88056 z"
     sodipodi:nodetypes="cscscscccccccccccc" />
  <path
     inkscape:connector-curvature="0"
     id="path874"
     style="font-style:normal;font-variant:normal;font-weight:bold;font-stretch:normal;font-size:medium;line-height:1000%;font-family:NoylandAAA-Bold;-inkscape-font-specification:'NoylandAAA-Bold Bold';letter-spacing:0px;word-spacing:0px;opacity:1;fill:#595b5d;fill-opacity:1;stroke:none;stroke-width:40.51424026px;stroke-linecap:butt;stroke-linejoin:miter;stroke-opacity:1"
     d="m 823.60068,819.50927 v -29.23508 c 0,-3.69112 1.10739,-6.86555 3.32216,-9.52328 2.36333,-2.65773 7.61163,-3.9866 11.74489,-3.9866 4.13435,0 8.31234,1.32887 10.82233,3.9866 2.50918,2.50919 3.74395,5.68366 3.76377,9.52328 v 17.05407 l 57.41828,2.10357 c 3.83912,0.59151 6.93981,2.65868 9.30206,6.20152 2.36333,3.3959 2.80629,7.3825 1.32887,11.9598 l -35.38829,94.6923 c -1.32887,3.9866 -3.61752,6.71821 -6.86595,8.19481 -3.24843,1.47742 -8.1094,1.87493 -11.06235,0.84047 -3.54364,-0.88591 -6.34898,-3.02696 -8.41602,-6.42313 -2.06622,-3.39591 -2.96299,-8.44993 -1.63412,-11.99357 l 29.6783,-77.00635 -51.83252,-1.9933 c -4.13434,-0.44295 -7.16129,-1.9933 -9.08086,-4.65103 -1.92037,-2.80548 -2.95349,-6.05391 -3.09934,-9.7453 z"
     sodipodi:nodetypes="cscscscccccccccccccc" />
  <path
     inkscape:connector-curvature="0"
     id="path878"
     style="font-style:normal;font-variant:normal;font-weight:bold;font-stretch:normal;font-size:medium;line-height:1000%;font-family:NoylandAAA-Bold;-inkscape-font-specification:'NoylandAAA-Bold Bold';letter-spacing:0px;word-spacing:0px;opacity:1;fill:#595b5d;fill-opacity:1;stroke:none;stroke-width:41.1697998px;stroke-linecap:butt;stroke-linejoin:miter;stroke-opacity:1"
     d="m 537.31411,860.09768 14.27466,2.1275 c 7.58881,1.44078 13.36533,9.60595 11.02651,16.42964 -2.40158,7.20197 -7.57799,10.35284 -15.52925,9.45259 l -29.50313,-4.19953 c -6.45601,-1.0558 -11.133,-6.85234 -10.12032,-13.50492 l 7.32436,-38.53336 -6.38988,-0.93922 c -3.45085,-0.45012 -5.90049,-2.05158 -7.70099,-4.45233 -1.80049,-2.54978 -2.70073,-5.47559 -2.70073,-8.77741 0,-3.90097 1.4253,-7.20183 4.2759,-9.90257 2.85086,-2.70074 6.37692,-3.82605 10.57817,-3.37593 22.90325,3.14847 51.59445,5.90745 81.03433,6.45506 4.20125,0.13724 7.7273,1.6376 10.57817,4.5011 2.8506,2.85087 4.2759,6.52692 4.2759,11.02815 l -0.0582,89.0465 c 0,3.30099 -1.20078,6.37678 -3.60235,9.22738 -2.25062,2.85088 -5.62655,4.42631 -10.12778,4.7263 l -75.25579,7.01959 c -3.75112,0 -6.97705,-1.20079 -9.6778,-3.60236 -2.70073,-2.25062 -4.12603,-5.32655 -4.27588,-9.2278 -0.29917,-3.60099 0.90161,-6.75185 3.60235,-9.45259 2.85087,-2.85059 5.85174,-4.35096 9.0026,-4.50109 l 61.94415,-6.31409 -0.47469,-65.99368 c -12.94874,-0.77414 -27.03632,-1.20663 -37.8496,-2.6214 z"
     sodipodi:nodetypes="cccccccccsccccccccccccccccc" />
  <path
     inkscape:connector-curvature="0"
     id="path882"
     style="font-style:normal;font-variant:normal;font-weight:bold;font-stretch:normal;font-size:medium;line-height:1000%;font-family:NoylandAAA-Bold;-inkscape-font-specification:'NoylandAAA-Bold Bold';letter-spacing:0px;word-spacing:0px;opacity:1;fill:#595b5d;fill-opacity:1;stroke:none;stroke-width:40.51424026px;stroke-linecap:butt;stroke-linejoin:miter;stroke-opacity:1"
     d="m 274.29751,812.4677 c 1.90844,-7.34247 9.88583,-10.40446 15.99474,-8.59958 l 26.74197,6.20702 c 2.06622,0.73736 3.54269,1.32752 4.42942,1.77047 1.03446,0.29441 2.28905,0.95884 3.76377,1.9933 1.47742,1.03447 2.51053,2.36334 3.09934,3.9866 0.73736,1.62328 1.10604,3.61658 1.10604,5.97991 v 94.55306 c 0,3.9866 -1.25459,7.16103 -3.76377,9.52328 -2.36334,2.36333 -6.85811,3.545 -10.8439,3.545 -3.69111,0 -8.24635,-1.25459 -11.05183,-3.76378 -2.65773,-2.65773 -3.98974,-5.75843 -3.9866,-9.30207 l 0.0747,-84.18892 -16.26469,-4.87265 c -3.83886,-0.88591 -6.57033,-3.02681 -8.19441,-6.42272 -1.62327,-3.54365 -1.99195,-7.01342 -1.10604,-10.40932 z"
     sodipodi:nodetypes="ccccccsscscsccccc" />
  <path
     inkscape:connector-curvature="0"
     id="path884"
     style="font-style:normal;font-variant:normal;font-weight:bold;font-stretch:normal;font-size:medium;line-height:1000%;font-family:NoylandAAA-Bold;-inkscape-font-specification:'NoylandAAA-Bold Bold';letter-spacing:0px;word-spacing:0px;opacity:1;fill:#595b5d;fill-opacity:1;stroke:none;stroke-width:40.51424026px;stroke-linecap:butt;stroke-linejoin:miter;stroke-opacity:1"
     d="m 177.11977,917.86553 c -0.0113,9.04426 -7.45939,13.1956 -15.62629,13.29029 -7.87995,-0.28207 -13.61007,-6.29025 -13.73149,-13.28746 l -0.37341,-85.94966 -6.86595,-1.10604 c -4.28181,-0.59151 -7.3825,-2.28959 -9.30207,-5.09426 -1.92037,-2.80521 -2.65908,-5.83202 -2.21612,-9.08045 0.2944,-3.69139 1.77087,-6.79208 4.42942,-9.30207 2.65773,-2.50919 6.12751,-3.61658 10.40932,-3.32217 30.60686,5.40524 67.55643,5.51283 97.84192,6.07269 4.13407,0.13505 7.45624,1.53778 9.96651,4.20821 2.50918,2.65773 3.75703,5.8323 3.76377,9.52368 l 0.17603,96.41906 c 0.0108,5.89916 -7.51196,11.35391 -14.74386,11.35391 -7.23189,0 -14.61225,-5.13267 -14.74385,-11.35391 l 0.20257,-82.61096 -49.08391,-1.96775 z"
     sodipodi:nodetypes="sccccccccccsszcccs" />
  <path
     inkscape:connector-curvature="0"
     id="path886"
     style="font-style:normal;font-variant:normal;font-weight:bold;font-stretch:normal;font-size:medium;line-height:1000%;font-family:NoylandAAA-Bold;-inkscape-font-specification:'NoylandAAA-Bold Bold';letter-spacing:0px;word-spacing:0px;opacity:1;fill:#595b5d;fill-opacity:1;stroke:none;stroke-width:40.51424026px;stroke-linecap:butt;stroke-linejoin:miter;stroke-opacity:1"
     d="M 79.496113,837.00634 C 56.469441,835.87228 39.251384,835.64637 11.721605,830.94118 3.5427727,829.06676 -1.4929948,821.40712 0.39702467,814.79205 2.5988538,807.08564 10.683299,803.53267 17.436335,804.59258 c 29.678031,3.54364 61.939035,5.72711 78.476138,6.02233 3.838857,0.13505 7.013287,1.53778 9.523277,4.20821 2.65773,2.65773 3.9866,5.68455 3.9866,9.08046 v 92.37358 c 0,8.50318 -4.30227,15.3139 -15.189822,15.3139 -8.992588,0 -15.091311,-5.97169 -15.189822,-14.41485 z M 7.0907181,870.3433 C 7.6375909,863.12993 15.156,858.61982 21.77589,858.52053 c 7.282951,0.4384 14.384681,5.92686 14.337874,12.44512 l -0.787387,48.1571 c -0.120573,7.37432 -6.928083,12.29453 -15.251248,12.29453 -8.323165,0 -14.7398247,-5.88937 -14.5202401,-12.79241 z"
     sodipodi:nodetypes="ccscccscscccccszsc" />
  <path
     inkscape:connector-curvature="0"
     style="opacity:1;fill:#84459a;fill-opacity:1;stroke:none;stroke-width:144.85250854;stroke-linecap:square;stroke-linejoin:round;stroke-miterlimit:4;stroke-dasharray:none;stroke-dashoffset:0;stroke-opacity:1"
     d="M 327.88785,52.028477 C 327.53149,113.22829 264.06911,173.60737 206.71402,173.44254 v 56.30273 c 85.2138,0.6138 178.1748,-87.22296 177.30079,-177.716793 z"
     id="path839" />
  <path
     id="path1057"
     d="m 384.01481,52.028673 c 0.35636,61.199817 63.81874,121.578897 121.17383,121.414067 v 56.30273 c -85.2138,0.6138 -178.1748,-87.22296 -177.30079,-177.716797 z"
     style="opacity:1;fill:#6e6f73;fill-opacity:1;stroke:none;stroke-width:144.85250854;stroke-linecap:square;stroke-linejoin:round;stroke-miterlimit:4;stroke-dasharray:none;stroke-dashoffset:0;stroke-opacity:1"
     inkscape:connector-curvature="0" />
  <path
     inkscape:connector-curvature="0"
     style="opacity:1;fill:#40395e;fill-opacity:1;stroke:none;stroke-width:144.85250854;stroke-linecap:square;stroke-linejoin:round;stroke-miterlimit:4;stroke-dasharray:none;stroke-dashoffset:0;stroke-opacity:1"
     d="m 327.88785,52.028477 c -0.29944,31.004199 10.41807,61.694903 28.0625,88.624993 17.64478,-26.9303 28.3639,-57.620456 28.06446,-88.624993 z"
     id="path1059" />
  <path
     inkscape:connector-curvature="0"
     style="opacity:1;fill:#84459a;fill-opacity:1;stroke:none;stroke-width:144.85250854;stroke-linecap:square;stroke-linejoin:round;stroke-miterlimit:4;stroke-dasharray:none;stroke-dashoffset:0;stroke-opacity:1"
     d="m 384.01481,351.15954 c 0.35636,-61.19982 63.81874,-121.5789 121.17383,-121.41407 v -56.30273 c -85.2138,-0.6138 -178.1748,87.22296 -177.30079,177.7168 z"
     id="path1064" />
  <path
     id="path1066"
     d="M 327.88785,351.15954 C 327.53149,289.95972 264.06911,229.58064 206.71402,229.74547 v -56.30273 c 85.2138,-0.6138 178.1748,87.22296 177.30079,177.7168 z"
     style="opacity:1;fill:#1ea48b;fill-opacity:1;stroke:none;stroke-width:144.85250854;stroke-linecap:square;stroke-linejoin:round;stroke-miterlimit:4;stroke-dasharray:none;stroke-dashoffset:0;stroke-opacity:1"
     inkscape:connector-curvature="0" />
  <path
     id="path1068"
     d="m 327.88785,351.15954 c -0.29944,-31.0042 10.41807,-61.69491 28.0625,-88.625 17.64478,26.9303 28.3639,57.62046 28.06446,88.625 z"
     style="opacity:1;fill:#40395e;fill-opacity:1;stroke:none;stroke-width:144.85250854;stroke-linecap:square;stroke-linejoin:round;stroke-miterlimit:4;stroke-dasharray:none;stroke-dashoffset:0;stroke-opacity:1"
     inkscape:connector-curvature="0" />
  <path
     inkscape:connector-curvature="0"
     style="opacity:1;fill:#40395e;fill-opacity:1;stroke:none;stroke-width:144.38549805;stroke-linecap:square;stroke-linejoin:round;stroke-miterlimit:4;stroke-dasharray:none;stroke-dashoffset:0;stroke-opacity:1"
     d="m 206.71402,173.44274 c 30.80461,-0.29944 61.29774,10.41807 88.05446,28.0625 -26.75693,17.64478 -57.24952,28.3639 -88.05446,28.06446 z"
     id="path1070" />
  <path
     id="path1072"
     d="m 505.18864,173.44566 c -30.71051,-0.29944 -61.1105,10.41807 -87.7855,28.0625 26.67521,17.64478 57.07465,28.3639 87.7855,28.06446 z"
     style="opacity:1;fill:#40395e;fill-opacity:1;stroke:none;stroke-width:144.16481018;stroke-linecap:square;stroke-linejoin:round;stroke-miterlimit:4;stroke-dasharray:none;stroke-dashoffset:0;stroke-opacity:1"
     inkscape:connector-curvature="0" />
  <path
     inkscape:connector-curvature="0"
     style="opacity:1;fill:#84459a;fill-opacity:1;stroke:none;stroke-width:144.85250854;stroke-linecap:square;stroke-linejoin:round;stroke-miterlimit:4;stroke-dasharray:none;stroke-dashoffset:0;stroke-opacity:1"
     d="m 702.54883,670.39751 c 0.35636,-61.19982 63.81874,-121.5789 121.17383,-121.41407 v -56.30273 c -85.2138,-0.6138 -178.1748,87.22296 -177.30079,177.7168 z"
     id="path1102" />
  <path
     id="path1104"
     d="M 646.42187,670.39731 C 646.06551,609.19749 582.60313,548.81841 525.24804,548.98324 v -56.30273 c 85.2138,-0.6138 178.1748,87.22296 177.30079,177.7168 z"
     style="opacity:1;fill:#1ea48b;fill-opacity:1;stroke:none;stroke-width:144.85250854;stroke-linecap:square;stroke-linejoin:round;stroke-miterlimit:4;stroke-dasharray:none;stroke-dashoffset:0;stroke-opacity:1"
     inkscape:connector-curvature="0" />
  <path
     inkscape:connector-curvature="0"
     style="opacity:1;fill:#40395e;fill-opacity:1;stroke:none;stroke-width:144.85250854;stroke-linecap:square;stroke-linejoin:round;stroke-miterlimit:4;stroke-dasharray:none;stroke-dashoffset:0;stroke-opacity:1"
     d="m 702.54883,670.39751 c 0.29944,-31.0042 -10.41807,-61.69491 -28.0625,-88.625 -17.64478,26.9303 -28.3639,57.62046 -28.06446,88.625 z"
     id="path1106" />
  <path
     inkscape:connector-curvature="0"
     style="opacity:1;fill:#84459a;fill-opacity:1;stroke:none;stroke-width:144.85250854;stroke-linecap:square;stroke-linejoin:round;stroke-miterlimit:4;stroke-dasharray:none;stroke-dashoffset:0;stroke-opacity:1"
     d="m 646.42187,371.26644 c -0.35636,61.19982 -63.81874,121.5789 -121.17383,121.41407 v 56.30273 c 85.2138,0.6138 178.1748,-87.22296 177.30079,-177.7168 z"
     id="path1108" />
  <path
     id="path1110"
     d="m 702.54883,371.26644 c 0.35636,61.19982 63.81874,121.5789 121.17383,121.41407 v 56.30273 c -85.2138,0.6138 -178.1748,-87.22296 -177.30079,-177.7168 z"
     style="opacity:1;fill:#6e6f73;fill-opacity:1;stroke:none;stroke-width:144.85250854;stroke-linecap:square;stroke-linejoin:round;stroke-miterlimit:4;stroke-dasharray:none;stroke-dashoffset:0;stroke-opacity:1"
     inkscape:connector-curvature="0" />
  <path
     id="path1112"
     d="m 702.54883,371.26644 c 0.29944,31.0042 -10.41807,61.69491 -28.0625,88.625 -17.64478,-26.9303 -28.3639,-57.62046 -28.06446,-88.625 z"
     style="opacity:1;fill:#40395e;fill-opacity:1;stroke:none;stroke-width:144.85250854;stroke-linecap:square;stroke-linejoin:round;stroke-miterlimit:4;stroke-dasharray:none;stroke-dashoffset:0;stroke-opacity:1"
     inkscape:connector-curvature="0" />
  <path
     inkscape:connector-curvature="0"
     style="opacity:1;fill:#40395e;fill-opacity:1;stroke:none;stroke-width:144.38549805;stroke-linecap:square;stroke-linejoin:round;stroke-miterlimit:4;stroke-dasharray:none;stroke-dashoffset:0;stroke-opacity:1"
     d="m 823.72266,548.98324 c -30.80461,0.29944 -61.29774,-10.41807 -88.05446,-28.0625 26.75693,-17.64478 57.24952,-28.3639 88.05446,-28.06446 z"
     id="path1114" />
  <path
     id="path1116"
     d="m 525.24804,548.98032 c 30.71051,0.29944 61.1105,-10.41807 87.7855,-28.0625 -26.67521,-17.64478 -57.07465,-28.3639 -87.7855,-28.06446 z"
     style="opacity:1;fill:#40395e;fill-opacity:1;stroke:none;stroke-width:144.16481018;stroke-linecap:square;stroke-linejoin:round;stroke-miterlimit:4;stroke-dasharray:none;stroke-dashoffset:0;stroke-opacity:1"
     inkscape:connector-curvature="0" />
  <path
     id="path1120"
     d="M 327.88789,670.39751 C 327.53153,609.19769 264.06915,548.81861 206.71406,548.98344 v -56.30273 c 85.2138,-0.6138 178.1748,87.22296 177.30079,177.7168 z"
     style="opacity:1;fill:#1ea48b;fill-opacity:1;stroke:none;stroke-width:144.85250854;stroke-linecap:square;stroke-linejoin:round;stroke-miterlimit:4;stroke-dasharray:none;stroke-dashoffset:0;stroke-opacity:1"
     inkscape:connector-curvature="0" />
  <path
     inkscape:connector-curvature="0"
     style="opacity:1;fill:#84459a;fill-opacity:1;stroke:none;stroke-width:144.85250854;stroke-linecap:square;stroke-linejoin:round;stroke-miterlimit:4;stroke-dasharray:none;stroke-dashoffset:0;stroke-opacity:1"
     d="m 384.01485,670.39731 c 0.35636,-61.19982 63.81874,-121.5789 121.17383,-121.41407 v -56.30273 c -85.2138,-0.6138 -178.1748,87.22296 -177.30079,177.7168 z"
     id="path1122" />
  <path
     id="path1124"
     d="m 327.88789,670.39751 c -0.29944,-31.0042 10.41807,-61.69491 28.0625,-88.625 17.64478,26.9303 28.3639,57.62046 28.06446,88.625 z"
     style="opacity:1;fill:#40395e;fill-opacity:1;stroke:none;stroke-width:144.85250854;stroke-linecap:square;stroke-linejoin:round;stroke-miterlimit:4;stroke-dasharray:none;stroke-dashoffset:0;stroke-opacity:1"
     inkscape:connector-curvature="0" />
  <path
     id="path1126"
     d="m 384.01485,371.26644 c 0.35636,61.19982 63.81874,121.5789 121.17383,121.41407 v 56.30273 c -85.2138,0.6138 -178.1748,-87.22296 -177.30079,-177.7168 z"
     style="opacity:1;fill:#6e6f73;fill-opacity:1;stroke:none;stroke-width:144.85250854;stroke-linecap:square;stroke-linejoin:round;stroke-miterlimit:4;stroke-dasharray:none;stroke-dashoffset:0;stroke-opacity:1"
     inkscape:connector-curvature="0" />
  <path
     inkscape:connector-curvature="0"
     style="opacity:1;fill:#84459a;fill-opacity:1;stroke:none;stroke-width:144.85250854;stroke-linecap:square;stroke-linejoin:round;stroke-miterlimit:4;stroke-dasharray:none;stroke-dashoffset:0;stroke-opacity:1"
     d="m 327.88789,371.26644 c -0.35636,61.19982 -63.81874,121.5789 -121.17383,121.41407 v 56.30273 c 85.2138,0.6138 178.1748,-87.22296 177.30079,-177.7168 z"
     id="path1128" />
  <path
     inkscape:connector-curvature="0"
     style="opacity:1;fill:#40395e;fill-opacity:1;stroke:none;stroke-width:144.85250854;stroke-linecap:square;stroke-linejoin:round;stroke-miterlimit:4;stroke-dasharray:none;stroke-dashoffset:0;stroke-opacity:1"
     d="m 327.88789,371.26644 c -0.29944,31.0042 10.41807,61.69491 28.0625,88.625 17.64478,-26.9303 28.3639,-57.62046 28.06446,-88.625 z"
     id="path1130" />
  <path
     id="path1132"
     d="m 206.71406,548.98324 c 30.80461,0.29944 61.29774,-10.41807 88.05446,-28.0625 -26.75693,-17.64478 -57.24952,-28.3639 -88.05446,-28.06446 z"
     style="opacity:1;fill:#40395e;fill-opacity:1;stroke:none;stroke-width:144.38549805;stroke-linecap:square;stroke-linejoin:round;stroke-miterlimit:4;stroke-dasharray:none;stroke-dashoffset:0;stroke-opacity:1"
     inkscape:connector-curvature="0" />
  <path
     inkscape:connector-curvature="0"
     style="opacity:1;fill:#40395e;fill-opacity:1;stroke:none;stroke-width:144.16481018;stroke-linecap:square;stroke-linejoin:round;stroke-miterlimit:4;stroke-dasharray:none;stroke-dashoffset:0;stroke-opacity:1"
     d="m 505.18868,548.98032 c -30.71051,0.29944 -61.1105,-10.41807 -87.7855,-28.0625 26.67521,-17.64478 57.07465,-28.3639 87.7855,-28.06446 z"
     id="path1134" />
  <path
     sodipodi:nodetypes="ccccccccsccsccsccccccc"
     d="m 353.35349,813.21814 c 0.44295,-2.8052 1.77182,-5.24146 3.9866,-7.30877 2.36333,-2.21478 5.46402,-3.24789 9.30207,-3.09934 46.23707,6.31283 86.67842,6.5317 93.66546,6.34033 12.49208,0 16.61949,7.21008 16.61083,15.06077 l 0.12447,94.6026 c -0.34391,8.60521 -7.99161,13.34826 -15.72342,13.47789 -3.69112,0 -6.79181,-1.18166 -9.30207,-3.54499 -2.50919,-2.36333 -3.76378,-5.46402 -3.76378,-9.30207 v -83.64881 c -24.89559,-0.32445 -34.16628,-0.64464 -47.11794,-1.96775 l 0.49788,77.10516 c 0.0381,5.90605 -2.51013,9.96664 -7.53038,12.18142 l -31.0856,12.48501 c -7.19184,3.20592 -15.08307,0.43029 -17.76598,-8.08898 -1.98467,-6.3021 1.93593,-13.34626 7.57665,-15.97735 l 18.71385,-8.23775 0.12447,-72.28174 -7.83397,-1.50962 c -3.54365,-0.44295 -6.42286,-2.14104 -8.63764,-5.09426 -2.21478,-3.10068 -2.58008,-7.66755 -1.84272,-11.2112 z"
     style="font-style:normal;font-variant:normal;font-weight:bold;font-stretch:normal;font-size:medium;line-height:1000%;font-family:NoylandAAA-Bold;-inkscape-font-specification:'NoylandAAA-Bold Bold';letter-spacing:0px;word-spacing:0px;opacity:1;fill:#595b5d;fill-opacity:1;stroke:none;stroke-width:40.51424026px;stroke-linecap:butt;stroke-linejoin:miter;stroke-opacity:1"
     id="path897"
     inkscape:connector-curvature="0" />
  <path
     inkscape:connector-curvature="0"
     id="path899"
     style="font-style:normal;font-variant:normal;font-weight:bold;font-stretch:normal;font-size:medium;line-height:1000%;font-family:NoylandAAA-Bold;-inkscape-font-specification:'NoylandAAA-Bold Bold';letter-spacing:0px;word-spacing:0px;opacity:1;fill:#595b5d;fill-opacity:1;stroke:none;stroke-width:40.51424026px;stroke-linecap:butt;stroke-linejoin:miter;stroke-opacity:1"
     d="m 682.17312,813.21814 c 0.44295,-2.8052 1.77182,-5.24146 3.9866,-7.30877 2.36333,-2.21478 5.46402,-3.24789 9.30207,-3.09934 46.23707,6.31283 86.67842,6.5317 93.66546,6.34033 12.49208,0 16.61949,7.21008 16.61083,15.06077 l 0.12447,94.6026 c -0.34391,8.60521 -7.99161,13.34826 -15.72342,13.47789 -3.69112,0 -6.79181,-1.18166 -9.30207,-3.54499 -2.50919,-2.36333 -3.76378,-5.46402 -3.76378,-9.30207 v -83.64881 c -25.96325,-0.21768 -36.33504,-0.42776 -47.11794,-1.96775 l 0.49788,77.10516 c 0.0381,5.90605 -2.51013,9.96664 -7.53038,12.18142 l -31.0856,12.48501 c -7.19184,3.20592 -15.08307,0.43029 -17.76598,-8.08898 -1.98467,-6.3021 1.93593,-13.34626 7.57665,-15.97735 l 18.71385,-8.23775 0.12447,-72.28174 -7.83397,-1.50962 c -3.54365,-0.44295 -6.42286,-2.14104 -8.63764,-5.09426 -2.21478,-3.10068 -2.58008,-7.66755 -1.84272,-11.2112 z"
     sodipodi:nodetypes="ccccccccsccsccsccccccc" />
</svg>
