<svg xmlns="http://www.w3.org/2000/svg" id="Layer_2" viewBox="0 0 60.74 41.2"><defs><style>.cls-1{fill:#fff;}</style></defs><g id="Layer_1-2"><path class="cls-1" d="m30.39,0c-2.78,0-5.05,2.26-5.05,5.05s2.26,5.05,5.05,5.05,5.05-2.26,5.05-5.05-2.26-5.05-5.05-5.05Zm3.04,5.05c0,1.67-1.37,3.04-3.04,3.04s-3.04-1.37-3.04-3.04,1.37-3.04,3.04-3.04,3.04,1.37,3.04,3.04Z"></path><path class="cls-1" d="m59.97,7.83c-.35-.66-.85-1.27-1.39-1.79-2.43-2.36-6.18-3.07-9.46-2.17-6.68,1.86-9.39,8.68-12.1,14.32-2.29,4.76-3.7,9.69-5.87,14.2-.61,1.27-.94.42-1.3-.35-.4-.9-3.47-8.18-4.67-10.9-1.75-3.94-3.44-8.33-6.16-11.7-2.62-3.25-6.16-5.94-10.52-5.68-3.33.19-6.34,1.93-7.69,4.46-1.91,3.51-.38,7.55,4.08,10.8,1.32.92,3,1.77,5.02,2.52-4.29,2.19-6.34,6.82-4.58,11.44,1.96,5.09,7.67,8.37,13,8.21,2.41-.07,4.53-.71,6.6-1.84.38-.21,2.38-1.51,2.31-2.05l-.12-.19s-2.64,1.01-2.92,1.09c-2.81.68-6.09.47-8.87-.19-2.71-.66-5.33-2-6.93-4.36-1.53-2.26-1.82-5.47-.24-7.71.73-1.04,1.82-1.82,2.97-2.31.99-.42,2.29-.5,3.04-1.37.19-.21.31-.5.31-.8-.02-.71-.71-1.01-1.27-1.23-3.68-1.39-7.5-2.88-9.88-6.13-.64-.85-.97-1.91-.87-2.97.35-4.58,6.51-5.59,9.86-4.06,2.29,1.04,4.06,2.97,5.5,5.02,1.16,1.65,2.12,3.47,3.02,5.26,1.23,2.43,2.38,4.91,3.49,7.41,1.06,2.36,2.08,4.74,3.07,7.12.71,1.67,1.3,3.37,2.08,5.02.17.38.38.78.75.94.31.14.68.12.94-.09.21-.17.35-.4.5-.66,1.01-1.98,1.67-4.25,2.52-6.3s1.65-4.1,2.52-6.13c1.49-3.49,3.09-7.01,4.86-10.35,1.32-2.5,3.02-4.88,5.35-6.49,2.34-1.6,5.45-2.26,8.07-1.23,1.82.73,3.37,2.43,3.42,4.39.05,2.03-1.42,3.77-3.02,5.02-2.17,1.7-4.69,2.9-7.29,3.82-.71.26-1.53.61-1.6,1.37-.05.47.26.94.66,1.2s.87.38,1.34.52c1.56.45,3.07,1.2,4.1,2.45,1.37,1.65,1.65,4.03.99,6.06s-2.19,3.73-4.01,4.84c-1.82,1.11-3.94,1.7-6.06,2-3.21.45-6.6.24-9.51-1.23-.28.21-.02.66.26.87,2.78,2.24,6.44,3.35,10,3.04,3.56-.31,6.96-2.05,9.29-4.76,1.37-1.6,2.41-3.54,2.67-5.64.5-3.75-1.72-7.71-5.19-9.27,2.48-1.16,5-2.36,6.93-4.29s3.21-4.72,2.64-7.41c-.12-.59-.35-1.2-.66-1.75h.02Z"></path></g></svg>