<svg xmlns="http://www.w3.org/2000/svg" id="Layer_2" viewBox="0 0 436.18 49.9"><defs><style>.cls-1{fill:#fff;}</style></defs><g id="Layer_1-2"><g><g><path class="cls-1" d="m30.38,0c-2.78,0-5.05,2.26-5.05,5.05s2.26,5.05,5.05,5.05,5.05-2.26,5.05-5.05-2.26-5.05-5.05-5.05Zm3.04,5.05c0,1.67-1.37,3.04-3.04,3.04s-3.04-1.37-3.04-3.04,1.37-3.04,3.04-3.04,3.04,1.37,3.04,3.04Z"></path><path class="cls-1" d="m59.96,7.83c-.35-.66-.85-1.27-1.39-1.79-2.43-2.36-6.18-3.07-9.46-2.17-6.68,1.86-9.39,8.68-12.1,14.32-2.29,4.76-3.7,9.69-5.87,14.2-.61,1.27-.94.42-1.3-.35-.4-.9-3.47-8.18-4.67-10.9-1.75-3.94-3.44-8.33-6.16-11.7-2.62-3.25-6.16-5.94-10.52-5.68-3.33.19-6.34,1.93-7.69,4.46-1.91,3.51-.38,7.55,4.08,10.8,1.32.92,3,1.77,5.02,2.52-4.29,2.19-6.34,6.82-4.58,11.44,1.96,5.09,7.67,8.37,13,8.21,2.41-.07,4.53-.71,6.6-1.84.38-.21,2.38-1.51,2.31-2.05l-.12-.19s-2.64,1.01-2.92,1.09c-2.81.68-6.09.47-8.87-.19-2.71-.66-5.33-2-6.93-4.36-1.53-2.26-1.82-5.47-.24-7.71.73-1.04,1.82-1.82,2.97-2.31.99-.42,2.29-.5,3.04-1.37.19-.21.31-.5.31-.8-.02-.71-.71-1.01-1.27-1.23-3.68-1.39-7.5-2.88-9.88-6.13-.64-.85-.97-1.91-.87-2.97.35-4.58,6.51-5.59,9.86-4.06,2.29,1.04,4.06,2.97,5.5,5.02,1.16,1.65,2.12,3.47,3.02,5.26,1.23,2.43,2.38,4.91,3.49,7.41,1.06,2.36,2.08,4.74,3.07,7.12.71,1.67,1.3,3.37,2.08,5.02.17.38.38.78.75.94.31.14.68.12.94-.09.21-.17.35-.4.5-.66,1.01-1.98,1.67-4.25,2.52-6.3.85-2.05,1.65-4.1,2.52-6.13,1.49-3.49,3.09-7.01,4.86-10.35,1.32-2.5,3.02-4.88,5.35-6.49,2.34-1.6,5.45-2.26,8.07-1.23,1.82.73,3.37,2.43,3.42,4.39.05,2.03-1.42,3.77-3.02,5.02-2.17,1.7-4.69,2.9-7.29,3.82-.71.26-1.53.61-1.6,1.37-.05.47.26.94.66,1.2s.87.38,1.34.52c1.56.45,3.07,1.2,4.1,2.45,1.37,1.65,1.65,4.03.99,6.06s-2.19,3.73-4.01,4.84c-1.82,1.11-3.94,1.7-6.06,2-3.21.45-6.6.24-9.51-1.23-.28.21-.02.66.26.87,2.78,2.24,6.44,3.35,10,3.04,3.56-.31,6.96-2.05,9.29-4.76,1.37-1.6,2.41-3.54,2.67-5.64.5-3.75-1.72-7.71-5.19-9.27,2.48-1.16,5-2.36,6.93-4.29,1.93-1.93,3.21-4.72,2.64-7.41-.12-.59-.35-1.2-.66-1.75h0Z"></path></g><g><path class="cls-1" d="m72.14,10.18h19.35l.02.02v2.89l-.02.02h-8.2v27.73l-.02.02h-2.89l-.02-.02V13.12h-8.22l-.02-.02v-2.89l.02-.02Z"></path><path class="cls-1" d="m95.09,10.18h2.81l.06.06v12.98c1.58-1.54,3.51-2.31,5.79-2.31,4.08,0,6.78,1.47,8.11,4.42.38.89.57,1.87.57,2.91v12.56l-.04.06h-2.83l-.06-.06v-12.53c0-2.31-1.28-3.73-3.84-4.28-.35-.08-.87-.13-1.57-.13h-.84c-2.35,0-3.98.82-4.9,2.45-.25.66-.38,1.37-.38,2.14v12.35l-.06.06h-2.81l-.06-.06V10.25l.06-.06Z"></path><path class="cls-1" d="m126.49,20.77c2.88,0,5.35,1.27,7.4,3.81,1.36,2,2.03,3.95,2.03,5.85v.25c0,.64-.04.96-.13.96h-15.91c0,.67.28,1.61.84,2.83.84,1.57,2.05,2.66,3.63,3.27.77.25,1.46.38,2.08.38,1.91,0,3.57-.83,4.97-2.49.49-.67.81-1.21.96-1.61h.04c1.13.45,2.02.82,2.66,1.13-.31.88-.99,1.91-2.05,3.08-1.93,1.89-4.12,2.83-6.56,2.83-2.92,0-5.41-1.28-7.48-3.84-1.36-1.94-2.03-4-2.03-6.18v-.19c0-2.79,1-5.24,3-7.34,1.87-1.83,4.06-2.75,6.56-2.75Zm-6.31,7.99h12.53c-.59-1.83-1.58-3.18-2.98-4.05-1.02-.66-2.13-.99-3.33-.99-2.04,0-3.78.95-5.22,2.85-.45.66-.78,1.38-1.01,2.18Z"></path><path class="cls-1" d="m151.94,10.18h9.22c2.98,0,5.33,1.09,7.06,3.27.88,1.24,1.32,2.67,1.32,4.28v.54c0,2.52-1.02,4.6-3.06,6.27v.02c.91.41,1.81,1.18,2.7,2.33.88,1.24,1.32,2.74,1.32,4.49v.99c0,3.55-1.57,6.11-4.72,7.69-1.37.53-2.48.8-3.33.8l-7.57.02h-2.96l-.06-.06V10.25l.06-.06Zm2.87,2.93v10.25h6.14c2.28,0,3.98-.91,5.09-2.72.38-.7.57-1.5.57-2.39v-.54c0-2.12-1.16-3.56-3.48-4.32-.64-.18-1.29-.27-1.93-.27h-6.39Zm0,13.18v11.63h.23l7.23-.02c.91,0,1.9-.31,2.98-.92,1.55-1.01,2.33-2.56,2.33-4.65v-1.03c0-2.33-1.25-3.9-3.75-4.7-.75-.21-1.52-.31-2.31-.31h-6.71Z"></path><path class="cls-1" d="m175.54,20.96h2.81l.06.06v12.53c0,2.18,1.17,3.58,3.52,4.19.46.13,1.25.19,2.37.19,1.43,0,2.49-.19,3.21-.57,1.08-.52,1.8-1.24,2.16-2.16.18-.64.27-1.27.27-1.89v-12.3l.04-.06h2.83l.06.06v19.49l-.06.06h-2.83l-.04-.06v-1.95c-1.54,1.54-3.47,2.31-5.81,2.31-2.5,0-4.44-.53-5.83-1.59-1.89-1.44-2.83-3.32-2.83-5.64v-12.62l.06-.06Z"></path><path class="cls-1" d="m200.07,10.18h2.91l.02.02v10.75h5.41l.02.02v2.91l-.02.02h-5.41v11.51c0,.57.15,1.1.44,1.59.29.39.69.66,1.19.82.22.07.42.1.59.1h.13c.52,0,1.24-.18,2.18-.54l.25-.13c.71,1.57,1.11,2.46,1.19,2.68-.2.11-.59.27-1.19.48-.98.29-1.75.44-2.31.44h-.36c-.74,0-1.52-.22-2.35-.65-1.1-.6-1.87-1.47-2.31-2.62-.27-.73-.4-1.52-.4-2.37v-11.32h-3.29l-.02-.02v-2.91l.02-.02h3.29v-10.77Z"></path><path class="cls-1" d="m214.34,10.18h2.91l.02.02v10.75h5.41l.02.02v2.91l-.02.02h-5.41v11.51c0,.57.15,1.1.44,1.59.29.39.69.66,1.19.82.22.07.42.1.59.1h.13c.52,0,1.24-.18,2.18-.54l.25-.13c.71,1.57,1.11,2.46,1.19,2.68-.2.11-.59.27-1.19.48-.98.29-1.75.44-2.31.44h-.36c-.74,0-1.52-.22-2.35-.65-1.1-.6-1.87-1.47-2.31-2.62-.27-.73-.4-1.52-.4-2.37v-11.32h-3.29l-.02-.02v-2.91l.02-.02h3.29v-10.77Z"></path><path class="cls-1" d="m235.58,20.77c2.88,0,5.35,1.27,7.4,3.81,1.36,2,2.03,3.95,2.03,5.85v.25c0,.64-.04.96-.13.96h-15.91c0,.67.28,1.61.84,2.83.84,1.57,2.05,2.66,3.63,3.27.77.25,1.46.38,2.08.38,1.91,0,3.57-.83,4.97-2.49.49-.67.81-1.21.96-1.61h.04c1.13.45,2.02.82,2.66,1.13-.31.88-.99,1.91-2.05,3.08-1.93,1.89-4.12,2.83-6.56,2.83-2.92,0-5.41-1.28-7.48-3.84-1.36-1.94-2.03-4-2.03-6.18v-.19c0-2.79,1-5.24,3-7.34,1.87-1.83,4.06-2.75,6.56-2.75Zm-6.31,7.99h12.53c-.59-1.83-1.58-3.18-2.98-4.05-1.02-.66-2.13-.99-3.33-.99-2.04,0-3.78.95-5.22,2.85-.45.66-.78,1.38-1.01,2.18Z"></path><path class="cls-1" d="m258.28,20.81c1.5,0,2.79.33,3.9.99l-.65,3.12h-.02c-1.24-.73-2.39-1.09-3.44-1.09-2.33,0-3.97,1.08-4.9,3.23-.21.52-.31,1.05-.31,1.59v12.16l-.06.06h-2.81l-.06-.06v-19.54l.06-.06h2.81l.06.06v1.7h.02c.61-.85,1.52-1.45,2.7-1.8.92-.24,1.82-.36,2.7-.36Z"></path><path class="cls-1" d="m274.71,10.18h.61l.02.02v2.89l-.02.02h-.46c-1.75,0-3.07.9-3.96,2.7-.6,1.27-.9,2.93-.9,4.99v.15h5.32l.02.02v2.89l-.02.02h-5.32v16.96l-.02.02h-2.89l-.02-.02v-16.96h-3.56l-.02-.02v-2.89l.02-.02h3.56v-.4c0-3.1.7-5.61,2.1-7.53.15-.22.43-.52.82-.9.48-.45.89-.77,1.24-.96.38-.22.77-.41,1.17-.54.8-.29,1.57-.44,2.33-.44Z"></path><path class="cls-1" d="m277.96,10.18h2.89l.02.02v30.65l-.02.02h-2.89l-.02-.02V10.2l.02-.02Z"></path><path class="cls-1" d="m288.06,20.96c.06,0,.38.73.96,2.2l5.7,13.58c.06-.07.87-1.94,2.45-5.6,2.88-6.78,4.34-10.17,4.38-10.19h3.17v.02l-11.15,25.99-1.28,2.93h-3.17v-.02l4-9.41-8.36-19.49.02-.02h3.27Z"></path><path class="cls-1" d="m319.78,10.18h9.22c2.98,0,5.33,1.09,7.06,3.27.88,1.24,1.32,2.67,1.32,4.28v.54c0,2.52-1.02,4.6-3.06,6.27v.02c.91.41,1.81,1.18,2.7,2.33.88,1.24,1.32,2.74,1.32,4.49v.99c0,3.55-1.57,6.11-4.72,7.69-1.37.53-2.48.8-3.33.8l-7.57.02h-2.96l-.06-.06V10.25l.06-.06Zm2.87,2.93v10.25h6.14c2.28,0,3.98-.91,5.09-2.72.38-.7.57-1.5.57-2.39v-.54c0-2.12-1.16-3.56-3.48-4.32-.64-.18-1.29-.27-1.93-.27h-6.39Zm0,13.18v11.63h.23l7.23-.02c.91,0,1.9-.31,2.98-.92,1.55-1.01,2.33-2.56,2.33-4.65v-1.03c0-2.33-1.25-3.9-3.75-4.7-.75-.21-1.52-.31-2.31-.31h-6.71Z"></path><path class="cls-1" d="m343.38,20.96h2.81l.06.06v12.53c0,2.18,1.17,3.58,3.52,4.19.46.13,1.25.19,2.37.19,1.43,0,2.49-.19,3.21-.57,1.08-.52,1.8-1.24,2.16-2.16.18-.64.27-1.27.27-1.89v-12.3l.04-.06h2.83l.06.06v19.49l-.06.06h-2.83l-.04-.06v-1.95c-1.54,1.54-3.47,2.31-5.81,2.31-2.5,0-4.44-.53-5.83-1.59-1.89-1.44-2.83-3.32-2.83-5.64v-12.62l.06-.06Z"></path><path class="cls-1" d="m367.91,10.18h2.91l.02.02v10.75h5.41l.02.02v2.91l-.02.02h-5.41v11.51c0,.57.15,1.1.44,1.59.29.39.69.66,1.19.82.22.07.42.1.59.1h.13c.52,0,1.24-.18,2.18-.54l.25-.13c.71,1.57,1.11,2.46,1.19,2.68-.2.11-.59.27-1.19.48-.98.29-1.75.44-2.31.44h-.36c-.74,0-1.52-.22-2.35-.65-1.1-.6-1.87-1.47-2.31-2.62-.27-.73-.4-1.52-.4-2.37v-11.32h-3.29l-.02-.02v-2.91l.02-.02h3.29v-10.77Z"></path><path class="cls-1" d="m382.18,10.18h2.91l.02.02v10.75h5.41l.02.02v2.91l-.02.02h-5.41v11.51c0,.57.15,1.1.44,1.59.29.39.69.66,1.19.82.22.07.42.1.59.1h.13c.52,0,1.24-.18,2.18-.54l.25-.13c.71,1.57,1.11,2.46,1.19,2.68-.2.11-.59.27-1.19.48-.98.29-1.75.44-2.31.44h-.36c-.74,0-1.52-.22-2.35-.65-1.1-.6-1.87-1.47-2.31-2.62-.27-.73-.4-1.52-.4-2.37v-11.32h-3.29l-.02-.02v-2.91l.02-.02h3.29v-10.77Z"></path><path class="cls-1" d="m403.73,20.81h.54c2.15,0,4.19.83,6.12,2.49,2.19,2.14,3.29,4.68,3.29,7.63s-1.15,5.58-3.46,7.76c-1.9,1.58-3.98,2.37-6.23,2.37-2.42,0-4.6-.89-6.56-2.68-2.07-2.14-3.1-4.58-3.1-7.34v-.25c0-2.74,1.03-5.17,3.08-7.29,1.97-1.79,4.07-2.68,6.31-2.68Zm-6.46,10.1v.1c0,1.97.74,3.72,2.22,5.24,1.36,1.24,2.86,1.87,4.51,1.87,2.11,0,3.91-.96,5.41-2.89.89-1.37,1.34-2.81,1.34-4.32,0-2.11-.8-3.93-2.39-5.47-1.3-1.13-2.71-1.7-4.23-1.7h-.31c-1.66,0-3.21.72-4.65,2.16-1.26,1.47-1.89,3.14-1.89,5.01Z"></path><path class="cls-1" d="m427.37,20.96h.36c3.93,0,6.57,1.5,7.92,4.51.35.89.52,1.83.52,2.81v12.53l-.06.06h-2.83l-.04-.06v-12.53c0-2.05-1.06-3.42-3.17-4.11-.49-.18-1.45-.27-2.87-.27-1.75,0-3.05.36-3.92,1.09-1.05.68-1.57,1.84-1.57,3.46v12.37l-.06.06h-2.81l-.06-.06v-19.49l.06-.06h2.81l.06.06v1.95c1.54-1.54,3.42-2.31,5.66-2.31Z"></path></g></g></g></svg>